<svg width="27" height="27" viewBox="0 0 27 27" fill="none" xmlns="http://www.w3.org/2000/svg">
<path fill-rule="evenodd" clip-rule="evenodd" d="M1.53544 25.1785C0.884571 24.5276 0.884571 23.4724 1.53544 22.8215L22.7486 1.60828C23.3995 0.957411 24.4548 0.95741 25.1057 1.60828C25.7565 2.25916 25.7565 3.31443 25.1057 3.96531L3.89247 25.1785C3.24159 25.8294 2.18632 25.8294 1.53544 25.1785Z" fill="#F3F3F3"/>
<path fill-rule="evenodd" clip-rule="evenodd" d="M1.17842 1.17851C1.8293 0.527638 2.88457 0.527637 3.53544 1.17851L24.7486 22.3917C25.3995 23.0426 25.3995 24.0979 24.7486 24.7487C24.0978 25.3996 23.0425 25.3996 22.3916 24.7487L1.17842 3.53553C0.527548 2.88466 0.527548 1.82939 1.17842 1.17851Z" fill="#F3F3F3"/>
</svg>
