<svg width="34" height="24" viewBox="0 0 34 24" fill="none" xmlns="http://www.w3.org/2000/svg">
<path fill-rule="evenodd" clip-rule="evenodd" d="M0 21.6667C0 20.7462 0.746192 20 1.66667 20H31.6667C32.5871 20 33.3333 20.7462 33.3333 21.6667C33.3333 22.5871 32.5871 23.3333 31.6667 23.3333H1.66667C0.746192 23.3333 0 22.5871 0 21.6667Z" fill="#F3F3F3"/>
<path fill-rule="evenodd" clip-rule="evenodd" d="M0 11.6667C0 10.7462 0.746192 10 1.66667 10H31.6667C32.5871 10 33.3333 10.7462 33.3333 11.6667C33.3333 12.5871 32.5871 13.3333 31.6667 13.3333H1.66667C0.746192 13.3333 0 12.5871 0 11.6667Z" fill="#F3F3F3"/>
<path fill-rule="evenodd" clip-rule="evenodd" d="M0 1.66667C0 0.746192 0.746192 0 1.66667 0H31.6667C32.5871 0 33.3333 0.746192 33.3333 1.66667C33.3333 2.58714 32.5871 3.33333 31.6667 3.33333H1.66667C0.746192 3.33333 0 2.58714 0 1.66667Z" fill="#F3F3F3"/>
</svg>
