<svg width="18" height="27" viewBox="0 0 18 27" fill="none" xmlns="http://www.w3.org/2000/svg">
<path d="M13.795 0.411621H3.70181C2.72003 0.411621 1.77846 0.819866 1.08423 1.54655C0.39001 2.27322 0 3.25881 0 4.28649V22.7055C0 23.2144 0.0957496 23.7182 0.281783 24.1884C0.467817 24.6585 0.74049 25.0856 1.08423 25.4454C1.42798 25.8053 1.83607 26.0907 2.28519 26.2854C2.73431 26.4801 3.21568 26.5804 3.70181 26.5804H13.795C14.2811 26.5804 14.7625 26.4801 15.2116 26.2854C15.6607 26.0907 16.0688 25.8053 16.4126 25.4454C16.7563 25.0856 17.029 24.6585 17.215 24.1884C17.4011 23.7182 17.4968 23.2144 17.4968 22.7055V4.28382C17.4961 3.2566 17.1058 2.2717 16.4117 1.5456C15.7175 0.819498 14.7763 0.411621 13.795 0.411621ZM3.70181 2.19807H13.795C14.3233 2.19878 14.8297 2.41875 15.2032 2.80975C15.5768 3.20075 15.7869 3.73086 15.7876 4.28382V19.0431H1.71049V4.28382C1.71117 3.73109 1.92114 3.20119 2.2944 2.81023C2.66767 2.41926 3.17377 2.19913 3.70181 2.19807ZM13.795 24.7913H3.70181C3.17367 24.7905 2.66737 24.5705 2.29403 24.1795C1.9207 23.7884 1.71083 23.2583 1.71049 22.7055V20.8349H15.7876V22.7055C15.7873 23.2586 15.5772 23.7889 15.2036 24.18C14.83 24.571 14.3234 24.7909 13.795 24.7913Z" fill="#F3F3F3"/>
<path d="M8.51546 4.76967C8.65074 4.77073 8.78328 4.72973 8.89625 4.65187C9.00923 4.57402 9.09755 4.46281 9.15003 4.33236C9.2025 4.20191 9.21675 4.0581 9.19098 3.91916C9.16521 3.78022 9.10057 3.65242 9.00527 3.55197C8.90997 3.45152 8.7883 3.38295 8.65569 3.35494C8.52308 3.32694 8.3855 3.34078 8.26042 3.39469C8.13533 3.4486 8.02837 3.54017 7.9531 3.65777C7.87784 3.77537 7.83765 3.91371 7.83765 4.05524C7.83797 4.24369 7.90933 4.4244 8.03623 4.55815C8.16313 4.69191 8.33533 4.76791 8.51546 4.76967Z" fill="#F3F3F3"/>
<path d="M8.51544 21.9414C8.38037 21.9414 8.24833 21.9833 8.13603 22.0618C8.02372 22.1403 7.93619 22.2519 7.8845 22.3824C7.83282 22.513 7.81929 22.6566 7.84564 22.7952C7.87199 22.9338 7.93703 23.0611 8.03254 23.161C8.12805 23.2609 8.24973 23.329 8.38221 23.3565C8.51468 23.3841 8.652 23.37 8.77678 23.3159C8.90157 23.2618 9.00823 23.1702 9.08327 23.0528C9.15831 22.9353 9.19836 22.7971 9.19836 22.6558C9.19836 22.4664 9.12641 22.2846 8.99834 22.1507C8.87026 22.0167 8.69656 21.9414 8.51544 21.9414Z" fill="#F3F3F3"/>
</svg>
